<svg width="800" height="800" viewBox="0 0 800 800" fill="none" xmlns="http://www.w3.org/2000/svg">
<rect x="0.5" y="0.5" width="799" height="799" stroke="black"/>
<path d="M720.3 452.054L727.94 370.877C733.94 307.124 736.94 275.247 726.034 262.069C720.134 254.941 712.11 250.574 703.534 249.82C687.677 248.428 667.764 271.097 627.937 316.436C607.34 339.884 597.044 351.607 585.554 353.424C579.19 354.427 572.704 353.394 566.824 350.437C556.217 345.097 549.144 330.604 534.997 301.617L460.437 148.829C433.707 94.0543 420.34 66.667 400 66.667C379.66 66.667 366.294 94.0543 339.564 148.829L265.003 301.618C250.857 330.604 243.784 345.097 233.176 350.437C227.298 353.394 220.812 354.427 214.446 353.424C202.958 351.607 192.659 339.884 172.063 316.436C132.236 271.097 112.323 248.428 96.4666 249.82C87.8889 250.574 79.8663 254.941 73.9666 262.069C63.0603 275.247 66.0602 307.124 72.0606 370.877L79.7003 452.054C92.2886 585.807 98.5829 652.684 138.003 693.007C177.424 733.334 236.506 733.334 354.67 733.334H445.33C563.494 733.334 622.577 733.334 661.997 693.007C701.417 652.684 707.71 585.807 720.3 452.054Z" stroke="black" stroke-width="50"/>
<path d="M371.53 417.416C384.197 394.693 390.53 383.333 400 383.333C409.47 383.333 415.803 394.693 428.47 417.416L431.747 423.296C435.343 429.753 437.143 432.98 439.95 435.11C442.757 437.24 446.25 438.033 453.24 439.613L459.603 441.053C484.2 446.62 496.5 449.4 499.427 458.81C502.353 468.22 493.967 478.023 477.2 497.633L472.86 502.706C468.097 508.276 465.713 511.063 464.64 514.51C463.57 517.956 463.93 521.673 464.65 529.11L465.307 535.876C467.84 562.04 469.11 575.12 461.45 580.936C453.787 586.75 442.273 581.45 419.243 570.846L413.287 568.103C406.74 565.09 403.47 563.583 400 563.583C396.53 563.583 393.26 565.09 386.713 568.103L380.757 570.846C357.727 581.45 346.213 586.75 338.55 580.936C330.891 575.12 332.159 562.04 334.693 535.876L335.35 529.11C336.07 521.673 336.43 517.956 335.36 514.51C334.287 511.063 331.904 508.276 327.139 502.706L322.801 497.633C306.032 478.023 297.648 468.22 300.574 458.81C303.5 449.4 315.799 446.62 340.397 441.053L346.76 439.613C353.75 438.033 357.243 437.24 360.05 435.11C362.857 432.98 364.657 429.753 368.253 423.296L371.53 417.416Z" stroke="black" stroke-width="50"/>
</svg>
