<svg width="800" height="800" viewBox="0 0 800 800" fill="none" xmlns="http://www.w3.org/2000/svg">
<rect x="0.5" y="0.5" width="799" height="799" stroke="black"/>
<path d="M679.357 353.803H232.244L339.192 246.723C357.407 228.486 357.407 198.915 339.192 180.678C320.977 162.441 291.443 162.441 273.228 180.678L86.6552 367.481C86.6377 367.498 86.6246 367.516 86.6093 367.531C85.5423 368.604 84.5278 369.729 83.5658 370.902C83.1198 371.445 82.735 372.017 82.3174 372.575C81.8232 373.236 81.3094 373.884 80.8503 374.573C80.4043 375.239 80.0195 375.931 79.6128 376.614C79.2411 377.238 78.8497 377.848 78.5065 378.49C78.1348 379.186 77.8177 379.904 77.4832 380.615C77.1662 381.285 76.8339 381.944 76.5474 382.631C76.2632 383.321 76.0315 384.026 75.7822 384.726C75.5176 385.464 75.2356 386.191 75.0082 386.944C74.7961 387.644 74.6409 388.358 74.4638 389.065C74.2692 389.834 74.0549 390.593 73.8997 391.375C73.7379 392.196 73.6417 393.023 73.5214 393.848C73.4252 394.529 73.2941 395.199 73.2263 395.891C72.9246 398.956 72.9246 402.044 73.2263 405.109C73.2941 405.799 73.4231 406.469 73.5214 407.152C73.6395 407.977 73.7357 408.807 73.8997 409.625C74.0549 410.409 74.2692 411.166 74.4638 411.935C74.6409 412.644 74.7961 413.356 75.0082 414.056C75.2356 414.809 75.5176 415.538 75.7822 416.274C76.0336 416.974 76.2632 417.679 76.5474 418.369C76.8317 419.056 77.1662 419.715 77.4832 420.385C77.8177 421.096 78.1326 421.814 78.5065 422.51C78.8497 423.152 79.2411 423.762 79.6128 424.386C80.0195 425.069 80.4065 425.761 80.8503 426.427C81.3116 427.116 81.8232 427.764 82.3174 428.425C82.735 428.983 83.122 429.555 83.5658 430.098C84.5256 431.269 85.5401 432.396 86.6093 433.469C86.6246 433.486 86.6399 433.504 86.6552 433.519L273.228 620.322C291.443 638.559 320.977 638.559 339.192 620.322C357.407 602.085 357.407 572.514 339.192 554.277L232.244 447.197H679.357C705.118 447.197 726 426.289 726 400.497C726 374.705 705.118 353.803 679.357 353.803Z" fill="black"/>
</svg>
