<svg width="800" height="800" viewBox="0 0 800 800" fill="none" xmlns="http://www.w3.org/2000/svg">
<rect x="0.5" y="0.5" width="799" height="799" stroke="black"/>
<path d="M184.262 556.743C222.006 608.693 277.23 645.28 339.786 659.78C402.343 674.28 468.03 665.72 524.78 635.67C581.533 605.623 625.533 556.106 648.703 496.216C671.873 436.326 672.653 370.09 650.9 309.67C629.15 249.252 586.326 198.711 530.3 167.335C474.273 135.958 408.803 125.852 345.923 138.874C283.043 151.896 226.973 187.171 188.015 238.218C149.057 289.265 129.827 352.656 133.859 416.743M183.859 366.743L133.859 416.743L83.8594 366.743" stroke="black" stroke-width="66.6667" stroke-linecap="round" stroke-linejoin="round"/>
<path d="M400 266.667V400L500 500" stroke="black" stroke-width="66.6667" stroke-linecap="round" stroke-linejoin="round"/>
</svg>
