<svg width="800" height="800" viewBox="0 0 800 800" fill="none" xmlns="http://www.w3.org/2000/svg">
<rect x="0.5" y="0.5" width="799" height="799" stroke="black"/>
<path d="M383.343 400H180.624M174.878 426.574L141.386 526.62C123.043 581.414 113.871 608.81 120.453 625.68C126.169 640.334 138.445 651.44 153.593 655.67C171.037 660.537 197.384 648.68 250.077 624.97L587.89 472.954C639.323 449.807 665.04 438.237 672.987 422.16C679.893 408.194 679.893 391.804 672.987 377.837C665.04 361.764 639.323 350.19 587.89 327.045L249.494 174.768C196.96 151.128 170.693 139.307 153.266 144.156C138.132 148.367 125.857 159.446 120.122 174.07C113.517 190.91 122.591 218.247 140.738 272.923L174.943 375.977C178.06 385.367 179.618 390.064 180.233 394.864C180.779 399.127 180.774 403.44 180.217 407.7C179.589 412.5 178.019 417.19 174.878 426.574Z" stroke="black" stroke-width="66.6667" stroke-linecap="round" stroke-linejoin="round"/>
</svg>
