<svg width="800" height="800" viewBox="0 0 800 800" fill="none" xmlns="http://www.w3.org/2000/svg">
<rect x="0.5" y="0.5" width="799" height="799" stroke="black"/>
<path d="M400 400C380.222 400 360.888 405.865 344.443 416.853C327.998 427.841 315.18 443.459 307.612 461.732C300.043 480.005 298.063 500.111 301.921 519.509C305.78 538.907 315.304 556.726 329.289 570.711C343.274 584.696 361.093 594.22 380.491 598.079C399.889 601.937 419.995 599.957 438.268 592.388C456.541 584.82 472.158 572.002 483.147 555.557C494.135 539.112 500 519.778 500 500C500 473.479 489.464 448.043 470.71 429.29C451.957 410.536 426.521 400 400 400ZM400 533.334C393.407 533.334 386.962 531.379 381.481 527.716C375.999 524.053 371.727 518.847 369.204 512.756C366.681 506.666 366.021 499.963 367.307 493.497C368.593 487.031 371.768 481.092 376.429 476.43C381.091 471.768 387.031 468.594 393.497 467.307C399.963 466.021 406.665 466.681 412.756 469.204C418.847 471.727 424.053 476 427.715 481.481C431.378 486.963 433.333 493.408 433.333 500C433.333 508.841 429.821 517.319 423.57 523.571C417.319 529.822 408.84 533.334 400 533.334ZM376.333 323.667C379.503 326.702 383.241 329.081 387.333 330.667C391.323 332.43 395.637 333.341 400 333.341C404.362 333.341 408.676 332.43 412.666 330.667C416.758 329.081 420.496 326.702 423.666 323.667L500 248.667C506.453 242.213 510.079 233.46 510.079 224.334C510.079 215.207 506.453 206.454 500 200C493.546 193.547 484.793 189.921 475.666 189.921C466.54 189.921 457.787 193.547 451.333 200L433.333 219.667V100C433.333 91.1598 429.821 82.6813 423.57 76.4301C417.319 70.1789 408.84 66.667 400 66.667C391.159 66.667 382.681 70.1789 376.429 76.4301C370.178 82.6813 366.666 91.1598 366.666 100V219.667L348.666 200C342.213 193.547 333.46 189.921 324.333 189.921C315.206 189.921 306.453 193.547 300 200C293.546 206.454 289.92 215.207 289.92 224.334C289.92 233.46 293.546 242.213 300 248.667L376.333 323.667ZM633.333 500C633.333 493.408 631.378 486.963 627.715 481.481C624.053 476 618.847 471.727 612.756 469.204C606.665 466.681 599.963 466.021 593.497 467.307C587.031 468.594 581.091 471.768 576.429 476.43C571.768 481.092 568.593 487.031 567.307 493.497C566.021 499.963 566.681 506.666 569.204 512.756C571.727 518.847 575.999 524.053 581.481 527.716C586.962 531.379 593.407 533.334 600 533.334C608.84 533.334 617.319 529.822 623.57 523.571C629.821 517.319 633.333 508.841 633.333 500ZM666.666 266.667H566.666C557.826 266.667 549.347 270.179 543.096 276.43C536.845 282.681 533.333 291.16 533.333 300C533.333 308.841 536.845 317.319 543.096 323.571C549.347 329.822 557.826 333.334 566.666 333.334H666.666C675.507 333.334 683.985 336.846 690.237 343.097C696.488 349.348 700 357.826 700 366.667V633.334C700 642.174 696.488 650.653 690.237 656.904C683.985 663.155 675.507 666.667 666.666 666.667H133.333C124.492 666.667 116.014 663.155 109.763 656.904C103.512 650.653 99.9997 642.174 99.9997 633.334V366.667C99.9997 357.826 103.512 349.348 109.763 343.097C116.014 336.846 124.492 333.334 133.333 333.334H233.333C242.174 333.334 250.652 329.822 256.903 323.571C263.154 317.319 266.666 308.841 266.666 300C266.666 291.16 263.154 282.681 256.903 276.43C250.652 270.179 242.174 266.667 233.333 266.667H133.333C106.811 266.667 81.376 277.203 62.6223 295.956C43.8687 314.71 33.333 340.145 33.333 366.667V633.334C33.333 659.855 43.8687 685.291 62.6223 704.044C81.376 722.798 106.811 733.334 133.333 733.334H666.666C693.188 733.334 718.623 722.798 737.377 704.044C756.131 685.291 766.666 659.855 766.666 633.334V366.667C766.666 340.145 756.131 314.71 737.377 295.956C718.623 277.203 693.188 266.667 666.666 266.667ZM166.666 500C166.666 506.593 168.621 513.038 172.284 518.519C175.947 524.001 181.153 528.273 187.244 530.796C193.334 533.319 200.037 533.979 206.503 532.693C212.969 531.407 218.908 528.232 223.57 523.571C228.232 518.909 231.406 512.969 232.693 506.503C233.979 500.037 233.319 493.335 230.796 487.244C228.273 481.153 224 475.947 218.519 472.285C213.037 468.622 206.592 466.667 200 466.667C191.159 466.667 182.681 470.179 176.429 476.43C170.178 482.681 166.666 491.16 166.666 500Z" fill="black"/>
</svg>
